<svg id="Capa_1" enable-background="new 0 0 511.994 511.994" height="512" viewBox="0 0 511.994 511.994" width="512" xmlns="http://www.w3.org/2000/svg"><path d="m231.945 188.377c-4.142 0-7.5 3.358-7.5 7.5s3.358 7.5 7.5 7.5h.08c4.142 0 7.46-3.358 7.46-7.5s-3.398-7.5-7.54-7.5z"/><path d="m280.042 188.377c-4.142 0-7.5 3.358-7.5 7.5s3.358 7.5 7.5 7.5h.08c4.142 0 7.46-3.358 7.46-7.5s-3.398-7.5-7.54-7.5z"/><path d="m509.562 174.316-96.193-88.177-.005.005c-1.007-.925-2.273-1.591-3.718-1.855-4.071-.743-7.98 1.958-8.724 6.033l-17.006 93.262-61.094 46.042c3.088-7.993 4.8-16.665 4.8-25.734v-103.382c0-6.396-3.84-12.056-9.784-14.418-5.943-2.363-12.622-.886-17.013 3.765l-40.205 42.573c-1.531-.098-3.071-.166-4.627-.166s-3.095.067-4.627.166l-40.205-42.573c-4.392-4.649-11.07-6.128-17.013-3.765s-9.784 8.022-9.784 14.418v103.383c0 9.069 1.712 17.741 4.8 25.734l-61.094-46.042-17.006-93.262c-.743-4.076-4.649-6.777-8.724-6.033-1.445.263-2.711.93-3.718 1.855l-.005-.005-96.191 88.176c-1.918 1.759-2.781 4.389-2.291 6.945s2.278 4.678 4.711 5.601c.15.057 15.186 5.854 28.948 18.84 17.832 16.827 25.358 37.481 22.37 61.39-.307 2.455.616 4.903 2.468 6.543s4.391 2.264 6.793 1.663c.709-.177 70.175-16.891 127.882 23.473-.617 5.157-.926 10.37-.926 15.628 0 .608.004 1.215.012 1.821.056 4.107 3.403 7.397 7.498 7.397h.104c4.142-.057 7.453-3.46 7.397-7.602-.007-.538-.011-1.077-.011-1.616 0-17.173 3.743-33.805 11.115-49.508 10.915 6.734 23.758 10.631 37.498 10.631s26.584-3.897 37.499-10.632c7.373 15.705 11.113 32.339 11.113 49.509 0 36.782-17.647 71.649-48.615 96.465-21.81-17.451-37.033-39.729-44.172-64.736-1.138-3.983-5.287-6.29-9.271-5.153-3.983 1.137-6.29 5.288-5.153 9.271 8.533 29.887 27.252 56.205 54.135 76.11 1.326.981 2.894 1.472 4.463 1.472s3.137-.491 4.463-1.473c37.591-27.833 59.15-68.64 59.15-111.957 0-5.257-.311-10.469-.928-15.626 57.54-40.234 127.181-23.649 127.883-23.475 2.399.601 4.941-.021 6.793-1.663 1.852-1.641 2.775-4.089 2.468-6.543-2.988-23.909 4.538-44.563 22.37-61.39 13.763-12.987 28.798-18.783 28.935-18.835 2.442-.916 4.233-3.034 4.729-5.594s-.372-5.194-2.294-6.956zm-197.831-74.16c.129-.137.241-.255.566-.125.325.129.325.292.325.479v59.598c-8.719-11.251-20.703-19.842-34.525-24.338zm-112.366.354c0-.188 0-.351.325-.479.326-.129.438-.01.566.125l33.634 35.615c-13.823 4.496-25.806 13.087-34.525 24.338zm-155.692 93.892c-8.162-7.618-16.577-13.023-22.939-16.521l72.434-66.397-27.294 114.633c-4.684-11.637-12.119-22.305-22.201-31.715zm29.887 64.196 29.981-125.921 22.891 125.54c-5.568-.703-11.228-1.168-16.967-1.39-14.887-.578-27.423.57-35.905 1.771zm68.607 2.291-10.125-55.53 72.274 54.468c-3.408 7.458-6.095 15.102-8.046 22.901-16.159-10.253-34.422-17.613-54.103-21.839zm57.198-56.996c0-31.225 25.404-56.629 56.629-56.629s56.629 25.404 56.629 56.629c0 31.226-25.404 56.629-56.629 56.629s-56.629-25.404-56.629-56.629zm203.157 52.933c-32.235 1.243-62 10.162-86.806 25.904-1.951-7.799-4.637-15.443-8.045-22.902l72.274-54.469-5.335 29.256c-.743 4.075 1.958 7.98 6.033 8.724.455.083.907.123 1.354.123 3.553 0 6.709-2.536 7.37-6.156l19.079-104.63 29.981 125.921c-8.482-1.199-21.02-2.346-35.905-1.771zm65.792-62.424c-10.082 9.41-17.517 20.078-22.201 31.715l-27.293-114.633 72.434 66.397c-6.363 3.498-14.778 8.903-22.94 16.521z"/></svg>