<svg id="Capa_1" enable-background="new 0 0 512 512" height="512" viewBox="0 0 512 512" width="512" xmlns="http://www.w3.org/2000/svg"><path d="m440.371 24.048c-33.997 0-66.564 10.641-88.477 28.686-26.141-23.34-60.31-36.702-95.894-36.702-36.799 0-70.408 13.903-95.865 36.725-21.914-18.059-54.494-28.708-88.506-28.708-39.496-.001-71.629 32.132-71.629 71.628 0 44.808 11.534 92.812 31.645 131.703 19.482 37.675 43.419 60.168 64.032 60.168 23.17 0 42.223-9.426 56.752-28.029.689.715 1.381 1.427 2.086 2.13 1.464 1.459 3.378 2.188 5.294 2.188 1.923 0 3.848-.736 5.313-2.206 2.924-2.934 2.916-7.683-.019-10.606-24.426-24.341-37.878-56.736-37.878-91.218.001-71.007 57.769-128.775 128.775-128.775 41.028 0 79.966 19.826 104.158 53.035 2.438 3.348 7.13 4.085 10.478 1.646s4.085-7.13 1.646-10.478c-3.023-4.15-6.264-8.102-9.68-11.868 22.436-17.83 54.316-24.319 77.769-24.319 31.225 0 56.629 25.404 56.629 56.629 0 42.489-10.923 87.982-29.969 124.813-16.101 31.137-36.479 52.058-50.708 52.058-19.453 0-34.771-8.067-46.715-24.63 3.846-4.95 7.379-10.153 10.558-15.584 12.828-21.917 19.609-46.997 19.609-72.528 0-17.477-3.103-34.559-9.223-50.771-1.463-3.875-5.791-5.83-9.666-4.368-3.875 1.463-5.831 5.79-4.368 9.666 5.479 14.513 8.256 29.812 8.256 45.473 0 22.871-6.07 45.33-17.554 64.95-9.328 15.936-22.028 29.707-37.072 40.328l-2.422-16.954c5.138-4.197 7.19-11.43 4.643-17.797l-13.293-33.232c-1.538-3.845-5.9-5.718-9.749-4.178-3.846 1.538-5.716 5.903-4.178 9.749l13.293 33.232c.099.247-.01.534-.249.653l-25.467 12.734c-2.293 1.146-3.842 3.386-4.106 5.937l-17.007 164.406c-1.167 11.285 2.521 22.588 10.118 31.013 7.598 8.425 18.462 13.256 29.807 13.256 22.132 0 40.139-18.006 40.139-40.139v-19.354l17.064 8.532v3.874c0 35.374-28.778 64.152-64.152 64.152-32.985 0-60.417-24.742-63.812-57.551l-17.399-168.188c-.264-2.55-1.813-4.79-4.106-5.936l-25.468-12.734c-.238-.119-.347-.405-.248-.652l13.293-33.232c1.539-3.846-.332-8.211-4.178-9.749-3.847-1.54-8.211.332-9.749 4.178l-13.293 33.232c-2.547 6.367-.495 13.6 4.643 17.797l-15.86 111.018c-.511 3.581 1.605 7.016 5.034 8.169.789.266 1.595.393 2.39.393 2.663 0 5.205-1.424 6.557-3.859l31.311-56.36 12.152 117.469c4.187 40.481 38.034 71.008 78.731 71.008 43.645 0 79.152-35.507 79.152-79.152v-8.509c0-2.841-1.605-5.438-4.146-6.708l-32.064-16.032c-2.326-1.164-5.087-1.038-7.297.328-2.211 1.367-3.557 3.781-3.557 6.38v31.49c0 13.861-11.277 25.139-25.139 25.139-7.209 0-13.839-2.949-18.668-8.302-4.829-5.354-7.079-12.252-6.337-19.423l11.761-113.686 31.311 56.36c1.353 2.435 3.894 3.859 6.557 3.859.795 0 1.602-.127 2.39-.393 3.428-1.153 5.545-4.588 5.034-8.169l-11.085-77.592c9.896-6.232 18.976-13.658 27.059-22.052 14.53 18.613 33.587 28.043 56.763 28.043 20.613 0 44.55-22.493 64.032-60.168 20.113-38.895 31.647-86.899 31.647-131.707 0-39.496-32.133-71.629-71.629-71.629zm-328.145 135.759c0 32.338 10.601 63.029 30.154 88.13-11.942 16.551-27.257 24.612-46.702 24.612-14.229 0-34.607-20.92-50.708-52.058-19.047-36.832-29.97-82.324-29.97-124.814 0-31.225 25.404-56.629 56.629-56.629 23.466 0 55.368 6.496 77.805 24.347-23.111 25.522-37.208 59.351-37.208 96.412zm76.781 161.256 9.351-65.458 10.524 5.262 2.131 20.604zm111.982-39.62 2.129-20.577 10.524-5.262 9.351 65.458z"/><path d="m207.387 151.791c0-12.976-10.557-23.532-23.532-23.532s-23.532 10.557-23.532 23.532 10.557 23.532 23.532 23.532 23.532-10.557 23.532-23.532zm-32.064 0c0-4.705 3.828-8.532 8.532-8.532s8.532 3.828 8.532 8.532-3.828 8.532-8.532 8.532-8.532-3.828-8.532-8.532z"/><path d="m328.145 175.323c12.976 0 23.532-10.557 23.532-23.532s-10.557-23.532-23.532-23.532-23.532 10.557-23.532 23.532 10.556 23.532 23.532 23.532zm0-32.065c4.705 0 8.532 3.828 8.532 8.532s-3.828 8.532-8.532 8.532-8.532-3.828-8.532-8.532 3.827-8.532 8.532-8.532z"/></svg>