<svg id="Capa_1" enable-background="new 0 0 512.01 512.01" height="512" viewBox="0 0 512.01 512.01" width="512" xmlns="http://www.w3.org/2000/svg"><path d="m179.852 344.16c15.186 0 27.541-12.354 27.541-27.54s-12.354-27.541-27.541-27.541c-15.186 0-27.54 12.354-27.54 27.541 0 15.186 12.354 27.54 27.54 27.54zm0-40.08c6.915 0 12.541 5.625 12.541 12.541 0 6.915-5.625 12.54-12.541 12.54-6.915 0-12.54-5.625-12.54-12.54 0-6.916 5.625-12.541 12.54-12.541z"/><path d="m332.158 344.16c15.186 0 27.54-12.354 27.54-27.54s-12.354-27.541-27.54-27.541-27.541 12.354-27.541 27.541c.001 15.186 12.355 27.54 27.541 27.54zm0-40.08c6.915 0 12.54 5.625 12.54 12.541 0 6.915-5.625 12.54-12.54 12.54s-12.541-5.625-12.541-12.54c.001-6.916 5.626-12.541 12.541-12.541z"/><path d="m470.921 161.872c34.862-47.833 48.703-105.999 37.025-155.593-.849-3.607-4.209-6.053-7.899-5.757-50.788 4.069-101.921 35.055-136.783 82.888-3.401 4.667-6.639 9.489-9.667 14.384-29.878-11.198-63.127-17.134-97.592-17.134s-67.714 5.936-97.592 17.134c-3.029-4.895-6.266-9.717-9.667-14.384-34.862-47.833-85.995-78.819-136.784-82.887-3.696-.29-7.05 2.15-7.899 5.757-11.677 49.594 2.164 107.759 37.025 155.592 4.623 6.342 9.603 12.445 14.812 18.232-10.371 18.891-15.814 39.298-15.814 60.363 0 65.872 34.17 120.792 62.836 155.265 31.58 37.978 74.607 72.193 112.62 89.625l16.75 16.75c6.27 6.27 14.506 9.405 22.742 9.405s16.472-3.135 22.742-9.405l15.096-15.096c39.135-17.498 83.789-52.427 115.8-90.777 28.348-33.961 62.02-87.729 63.198-152.291.034-1.157.056-2.316.056-3.476 0-21.065-5.444-41.471-15.814-60.363 5.207-5.786 10.187-11.889 14.809-18.232zm-95.535-69.627c30.804-42.266 74.985-70.318 119.309-76.082 1.361 7.399 2.105 14.991 2.278 22.697-6.303 1.177-12.643 2.831-18.915 4.952-3.924 1.327-6.029 5.583-4.703 9.507 1.058 3.127 3.976 5.1 7.104 5.1.796 0 1.607-.128 2.403-.397 4.553-1.54 9.139-2.805 13.707-3.787-2.529 33.527-15.57 68.342-37.77 98.802-3.463 4.752-7.145 9.356-10.971 13.786-10.276-14.651-23.695-28.177-40.024-40.109-1.886-1.378-3.809-2.718-5.751-4.038 1.531-2.322 3.115-4.617 4.75-6.861 12.805-17.57 28.146-32.082 45.599-43.134 3.5-2.216 4.54-6.85 2.324-10.349-2.216-3.498-6.847-4.54-10.349-2.324-19.054 12.066-35.774 27.87-49.696 46.972-1.835 2.517-3.609 5.095-5.322 7.703-6.946-4.044-14.182-7.749-21.673-11.103 2.445-3.848 5.011-7.646 7.7-11.335zm-358.071-76.081c44.324 5.764 88.505 33.815 119.309 76.082 2.689 3.689 5.256 7.487 7.699 11.335-7.49 3.354-14.726 7.059-21.673 11.103-1.714-2.608-3.488-5.186-5.322-7.703-26.498-36.359-63.522-60.929-102.292-68.117.174-7.707.918-15.3 2.279-22.7zm35.895 136.874c-22.2-30.461-35.241-65.275-37.77-98.802 33.887 7.214 66.239 29.299 89.766 61.58 1.635 2.244 3.219 4.54 4.75 6.861-1.942 1.32-3.865 2.66-5.751 4.038-16.329 11.933-29.748 25.459-40.024 40.109-3.825-4.431-7.507-9.035-10.971-13.786zm231.418 321.002-17.46 17.46c-6.691 6.69-17.579 6.691-24.271 0l-17.456-17.457c-.016-.017-.031-.034-.046-.051-.153-.159-.385-.451-.163-.987.243-.586.672-.586.878-.586h57.846c.206 0 .635 0 .878.586.242.586-.061.889-.206 1.035zm14.168-6.494c-.037-.093-.066-.188-.104-.281-.842-2.033-2.074-3.814-3.578-5.29l17.309-39.141c8.199-18.542 23.206-33.038 41.173-39.77 32.223-12.073 59.814-29.945 80.276-51.899-31.319 62.208-88.72 112.482-135.076 136.381zm158.128-227.079c0 .95-.026 1.897-.042 2.845-1.428 53.071-42.743 101.05-108.55 125.706-21.72 8.138-39.809 25.542-49.629 47.75l-17.977 40.651h-49.444l-17.977-40.651c-9.276-20.976-25.471-37.355-45.602-46.12-3.799-1.654-8.217.084-9.871 3.882-1.653 3.798.084 8.217 3.882 9.871 16.672 7.259 30.121 20.908 37.871 38.433l16.764 37.909c-1.992 1.541-3.617 3.567-4.715 5.949-27.922-14.814-65.209-42.101-97.181-80.551-12.301-14.793-25.666-33.544-36.6-55.347 14.503 15.691 32.847 29.539 54.451 40.708 3.68 1.903 8.205.462 10.106-3.218 1.902-3.68.462-8.204-3.218-10.106-52.667-27.229-84.109-71.232-84.109-117.71 0-79.847 90.132-144.807 200.919-144.807s200.922 64.959 200.922 144.806z"/></svg>