<svg id="Capa_1" enable-background="new 0 0 512.002 512.002" height="512" viewBox="0 0 512.002 512.002" width="512" xmlns="http://www.w3.org/2000/svg"><path d="m335.143 144.611c.324-2.933.503-5.894.503-8.851 0-22.905-9.732-43.568-25.262-58.111l40.206-66.256c2.149-3.541 1.021-8.154-2.521-10.302-3.541-2.15-8.154-1.02-10.302 2.521l-39.324 64.803c-12.297-7.777-26.846-12.3-42.441-12.3s-30.145 4.523-42.441 12.3l-39.326-64.804c-2.149-3.542-6.762-4.67-10.302-2.521-3.542 2.148-4.67 6.761-2.521 10.302l40.206 66.256c-15.53 14.543-25.262 35.207-25.262 58.111 0 2.957.177 5.918.501 8.852-70.963 30.719-120.743 101.419-120.743 183.536 0 68.8 34.76 131.926 92.982 168.862 1.78 1.129 3.952 1.458 5.987.904 2.034-.553 3.741-1.937 4.704-3.813 1.219-2.376 2.418-4.738 3.609-7.095 28.033 16.372 59.899 24.996 92.605 24.996 32.703 0 64.574-8.623 92.607-24.995 1.198 2.37 2.399 4.738 3.608 7.094.962 1.875 2.669 3.259 4.704 3.813.647.176 1.31.263 1.968.263 1.41 0 2.805-.397 4.018-1.167 58.222-36.936 92.982-100.062 92.982-168.862 0-82.118-49.781-152.818-120.745-183.536zm77.076 84.753c-3.626 2.013-7.73 3.105-11.927 3.105-13.545 0-24.565-11.02-24.565-24.564 0-5.758 1.995-11.223 5.577-15.577 11.835 10.928 22.246 23.376 30.915 37.036zm-220.863-93.604c0-35.646 29-64.646 64.645-64.646s64.645 29 64.645 64.646c0 1.068-.034 2.136-.086 3.202-20.262-6.933-41.978-10.702-64.559-10.702s-44.297 3.769-64.558 10.702c-.052-1.067-.087-2.135-.087-3.202zm-60.657 56.568c3.582 4.354 5.577 9.819 5.577 15.577 0 13.545-11.02 24.564-24.565 24.564-4.197 0-8.301-1.092-11.927-3.105 8.668-13.66 19.078-26.108 30.915-37.036zm231.051 287.438c-4.465-8.839-8.84-17.752-13.052-26.586-1.782-3.739-6.258-5.327-9.998-3.543-3.739 1.782-5.325 6.258-3.542 9.998 2.203 4.621 4.459 9.263 6.74 13.905-25.945 15.359-55.526 23.463-85.897 23.463-30.376 0-59.954-8.101-85.9-23.462 38.904-79.229 61.759-146.232 74.315-189.805 4.985-17.3 8.751-32.196 11.559-44.394 8.983 39.193 27.83 106.021 65.311 190.2 1.685 3.783 6.118 5.486 9.902 3.801s5.485-6.118 3.801-9.902c-30.819-69.218-48.632-126.575-58.147-162.503-10.313-38.937-13.374-61.795-13.403-62.019-.488-3.734-3.669-6.526-7.435-6.527-.001 0-.002 0-.002 0-3.765 0-6.947 2.792-7.437 6.525-.155 1.183-16.257 118.375-98.313 280.851-49.709-34.663-79.138-90.741-79.138-151.619 0-30.948 7.654-60.137 21.152-85.793 5.897 3.326 12.598 5.115 19.445 5.115 21.816 0 39.565-17.749 39.565-39.564 0-9.373-3.281-18.26-9.162-25.307 31.413-24.634 70.965-39.338 113.888-39.338s82.475 14.705 113.888 39.339c-5.881 7.046-9.162 15.934-9.162 25.307 0 21.816 17.749 39.564 39.565 39.564 6.846 0 13.547-1.789 19.445-5.115 13.498 25.656 21.152 54.845 21.152 85.793-.002 60.875-29.432 116.953-79.14 151.616z"/><path d="m172.974 296.862c-4.012 1.029-6.431 5.116-5.402 9.128.51 1.987.768 4.048.768 6.125 0 13.545-11.02 24.564-24.564 24.564s-24.565-11.02-24.565-24.564 11.02-24.564 24.565-24.564c2.085 0 4.153.26 6.146.773 4.012 1.035 8.1-1.381 9.133-5.393 1.033-4.011-1.382-8.101-5.393-9.133-3.214-.828-6.54-1.247-9.886-1.247-21.816 0-39.565 17.749-39.565 39.564s17.749 39.564 39.565 39.564 39.564-17.749 39.564-39.564c0-3.333-.417-6.646-1.238-9.85-1.029-4.013-5.117-6.43-9.128-5.403z"/><path d="m191.872 216.437c-12.976 0-23.532 10.557-23.532 23.532s10.557 23.532 23.532 23.532 23.532-10.557 23.532-23.532-10.557-23.532-23.532-23.532zm0 32.065c-4.705 0-8.532-3.828-8.532-8.532s3.828-8.532 8.532-8.532 8.532 3.828 8.532 8.532-3.828 8.532-8.532 8.532z"/><path d="m143.775 376.76c-12.976 0-23.533 10.557-23.533 23.532s10.557 23.532 23.533 23.532 23.532-10.557 23.532-23.532-10.556-23.532-23.532-23.532zm0 32.064c-4.705 0-8.533-3.828-8.533-8.532s3.828-8.532 8.533-8.532 8.532 3.828 8.532 8.532-3.827 8.532-8.532 8.532z"/><path d="m368.226 272.55c-21.816 0-39.564 17.749-39.564 39.564s17.749 39.564 39.564 39.564c21.816 0 39.565-17.749 39.565-39.564s-17.748-39.564-39.565-39.564zm0 64.129c-13.545 0-24.564-11.02-24.564-24.564s11.02-24.564 24.564-24.564 24.565 11.02 24.565 24.564-11.02 24.564-24.565 24.564z"/><path d="m343.662 239.969c0-12.976-10.557-23.532-23.532-23.532s-23.532 10.557-23.532 23.532 10.557 23.532 23.532 23.532 23.532-10.556 23.532-23.532zm-23.532 8.533c-4.705 0-8.532-3.828-8.532-8.532s3.828-8.532 8.532-8.532 8.532 3.828 8.532 8.532-3.828 8.532-8.532 8.532z"/><path d="m368.226 376.76c-12.976 0-23.532 10.557-23.532 23.532s10.557 23.532 23.532 23.532c12.976 0 23.533-10.557 23.533-23.532s-10.557-23.532-23.533-23.532zm0 32.064c-4.705 0-8.532-3.828-8.532-8.532s3.828-8.532 8.532-8.532c4.705 0 8.533 3.828 8.533 8.532s-3.828 8.532-8.533 8.532z"/></svg>