<svg id="Capa_1" enable-background="new 0 0 512.001 512.001" height="512" viewBox="0 0 512.001 512.001" width="512" xmlns="http://www.w3.org/2000/svg"><path d="m308.105 96.194c-22.384 0-41.917 12.409-52.105 30.704-10.188-18.295-29.721-30.704-52.105-30.704-32.866 0-59.604 26.739-59.604 59.605s26.738 59.605 59.604 59.605c9.268 0 18.048-2.128 25.88-5.918l20.225 26.966c1.417 1.889 3.639 3 6 3s4.583-1.111 6-3l20.225-26.967c7.831 3.791 16.612 5.918 25.88 5.918 32.866 0 59.604-26.739 59.604-59.605s-26.738-59.604-59.604-59.604zm-148.814 59.605c0-24.595 20.009-44.605 44.604-44.605s44.605 20.01 44.605 44.605-20.01 44.605-44.605 44.605-44.604-20.01-44.604-44.605zm96.709 63.653-13.634-18.178c5.482-4.645 10.115-10.256 13.634-16.574 3.519 6.318 8.152 11.93 13.634 16.574zm52.105-19.048c-24.595 0-44.605-20.01-44.605-44.605s20.01-44.605 44.605-44.605 44.604 20.01 44.604 44.605-20.008 44.605-44.604 44.605z"/><path d="m308.105 128.259c-15.186 0-27.541 12.354-27.541 27.54s12.354 27.541 27.541 27.541c15.186 0 27.54-12.354 27.54-27.541 0-15.186-12.354-27.54-27.54-27.54zm0 40.08c-6.915 0-12.541-5.625-12.541-12.541 0-6.915 5.625-12.54 12.541-12.54 6.915 0 12.54 5.625 12.54 12.54 0 6.916-5.625 12.541-12.54 12.541z"/><path d="m203.895 128.259c-15.186 0-27.54 12.354-27.54 27.54s12.354 27.541 27.54 27.541 27.541-12.354 27.541-27.541c0-15.186-12.355-27.54-27.541-27.54zm0 40.08c-6.915 0-12.54-5.625-12.54-12.541 0-6.915 5.625-12.54 12.54-12.54s12.541 5.625 12.541 12.54c0 6.916-5.626 12.541-12.541 12.541z"/><path d="m455.584 317.614c-2.028-39.995-14.14-77.596-34.107-105.899-5.007-38.352-17.932-74.08-37.735-103.888v-100.326c0-2.929-1.705-5.59-4.366-6.814-2.661-1.225-5.792-.787-8.015 1.12l-53.096 45.511c-19.528-10.005-40.568-15.253-62.265-15.253s-42.737 5.248-62.265 15.252l-53.096-45.511c-2.223-1.906-5.354-2.344-8.015-1.12s-4.366 3.885-4.366 6.814v100.326c-19.803 29.808-32.728 65.536-37.735 103.888-19.967 28.303-32.079 65.903-34.107 105.899-2.504 49.374 10.458 95.745 35.562 127.223 1.34 1.681 3.337 2.705 5.484 2.814.127.006.254.01.38.01 2.012 0 3.945-.809 5.36-2.254 12.57-12.845 23.29-29.362 31.406-48.245 16.341 21.979 36.034 39.147 57.667 50.566l-14.078 49.274h-26.407c-4.142 0-7.5 3.358-7.5 7.5s3.358 7.5 7.5 7.5h56.113c4.142 0 7.5-3.358 7.5-7.5s-3.358-7.5-7.5-7.5h-14.105l12.253-42.887c15.981 6.411 32.802 9.79 49.949 9.79 17.217 0 34.021-3.305 49.984-9.665l12.218 42.762h-14.105c-4.142 0-7.5 3.358-7.5 7.5s3.358 7.5 7.5 7.5h56.113c4.142 0 7.5-3.358 7.5-7.5s-3.358-7.5-7.5-7.5h-26.407l-14.036-49.126c20.575-10.842 39.432-26.998 55.544-47.943.704-.915 1.392-1.844 2.081-2.772 8.115 18.884 18.836 35.401 31.406 48.246 1.415 1.445 3.348 2.254 5.36 2.254.126 0 .253-.003.38-.01 2.147-.109 4.144-1.133 5.484-2.814 25.104-31.477 38.066-77.849 35.562-127.222zm-86.842-293.807v64.143c-11.192-13.084-23.536-24.027-36.735-32.656zm-188.748 31.487c-13.199 8.629-25.543 19.571-36.735 32.656v-64.143zm76.006 393.61c-49.157 0-95.649-31.491-124.366-84.238-1.98-3.638-6.535-4.98-10.173-3s-4.982 6.535-3.001 10.173c1.92 3.526 3.917 6.962 5.982 10.312-6.514 17.779-15.401 33.554-25.998 46.178-19.119-28.177-29.15-68.509-27.048-109.956 1.317-25.965 7.156-50.753 16.797-72.209-.004.607-.017 1.212-.017 1.82 0 31.685 5.201 62.209 15.459 90.723 1.402 3.898 5.7 5.922 9.596 4.519 3.898-1.402 5.921-5.698 4.519-9.596-9.67-26.882-14.573-55.697-14.573-85.646 0-8.087.376-16.059 1.086-23.899 19.412 2.94 88.79 16.741 146.684 69.522 1.431 1.305 3.242 1.958 5.053 1.958s3.622-.652 5.053-1.958c35.259-32.145 74.668-49.521 101.52-58.438 3.931-1.305 6.06-5.55 4.754-9.481s-5.549-6.062-9.481-4.754c-47.173 15.664-80.792 38.896-101.843 57.1-35.97-31.154-75.13-48.261-102.182-57.211-21.92-7.253-39.278-10.407-47.771-11.653 13.794-92.275 75.781-162.105 149.95-162.105 74.17 0 136.159 69.832 149.951 162.11-3.598.529-8.786 1.401-15.246 2.781-4.051.866-6.633 4.851-5.768 8.901.752 3.523 3.864 5.935 7.327 5.935.519 0 1.046-.054 1.574-.167 5.853-1.251 10.592-2.054 13.897-2.549.71 7.842 1.086 15.818 1.086 23.908.002 110.788-68.554 200.92-152.821 200.92zm157.555-20.575c-10.595-12.623-19.481-28.395-25.995-46.171 23.494-38.021 36.262-84.852 36.262-134.174 0-.608-.013-1.213-.017-1.82 9.641 21.456 15.481 46.243 16.797 72.209 2.103 41.447-7.927 81.779-27.047 109.956z"/></svg>