<svg id="Capa_1" enable-background="new 0 0 512.012 512.012" height="512" viewBox="0 0 512.012 512.012" width="512" xmlns="http://www.w3.org/2000/svg"><path d="m292.079 68.147c-14.985 0-28.229 7.604-36.073 19.156-7.844-11.552-21.087-19.156-36.073-19.156-2.985 0-5.97.305-8.872.905-4.056.839-6.664 4.808-5.824 8.864s4.809 6.663 8.864 5.824c1.904-.394 3.866-.594 5.832-.594 15.755 0 28.573 12.817 28.573 28.572 0 .174.014.345.026.516h-2.675c-5.508 0-10.461 3.061-12.924 7.988s-1.941 10.726 1.364 15.132l10.149 13.532c2.755 3.673 6.968 5.779 11.56 5.779 4.591 0 8.805-2.106 11.56-5.78l10.148-13.531c3.305-4.407 3.828-10.206 1.364-15.132-2.463-4.927-7.416-7.988-12.924-7.988h-2.675c.012-.171.026-.342.026-.516 0-15.755 12.818-28.572 28.573-28.572s28.572 12.817 28.572 28.572c0 35.646-29 64.646-64.645 64.646s-64.645-29-64.645-64.646c0-3.74.709-7.374 2.108-10.799 1.566-3.834-.272-8.213-4.107-9.779-3.837-1.568-8.213.272-9.779 4.107-2.139 5.234-3.223 10.776-3.223 16.471 0 43.917 35.729 79.646 79.645 79.646s79.645-35.729 79.645-79.646c.002-24.025-19.544-43.571-43.57-43.571zm-36.073 71.153-9.049-12.065h18.098z"/><path d="m227.505 111.719c0-4.142-3.358-7.5-7.5-7.5h-.072c-4.142 0-7.464 3.358-7.464 7.5s3.394 7.5 7.536 7.5 7.5-3.358 7.5-7.5z"/><path d="m299.579 111.719c0-4.142-3.358-7.5-7.5-7.5h-.072c-4.142 0-7.464 3.358-7.464 7.5s3.394 7.5 7.536 7.5 7.5-3.358 7.5-7.5z"/><path d="m434.13 258.438c-10.379-16.286-22.004-31.431-34.563-45.104-6.539-8.181-13.797-15.854-21.752-22.896-13.665-12.095-19.029-31.067-13.998-49.513 4.155-15.235 4.998-31.043 2.506-46.987-3.718-23.786-15.554-46.194-33.328-63.097-17.759-16.889-40.729-27.604-64.68-30.171-32.187-3.445-63.063 6.471-86.949 27.933-23.559 21.169-37.07 51.464-37.07 83.116 0 10.473 1.466 20.851 4.358 30.845 4.913 16.977-.723 35.734-14.359 47.787-8.128 7.184-15.52 14.995-22.155 23.315-12.442 13.586-23.963 28.618-34.259 44.772-27.858 43.712-44.126 91.1-45.806 133.433-.106 2.667 1.213 5.188 3.463 6.622 1.226.781 2.626 1.175 4.031 1.175 1.175 0 2.354-.276 3.434-.833 11.937-6.149 23.815-13.921 35.432-23.162 9.199 34.062 28.223 65.085 55.091 89.2-12.825 8.533-21.297 23.111-21.297 39.636 0 4.142 3.358 7.5 7.5 7.5h80.162c3.829 0 6.982-2.871 7.438-6.577 12.063 3.339 24.449 5.437 36.956 6.213 3.942.245 7.869.367 11.784.367 16.541 0 32.818-2.182 48.62-6.517.484 3.675 3.621 6.514 7.428 6.514h80.162c4.142 0 7.5-3.358 7.5-7.5 0-16.413-8.354-30.91-21.032-39.466 26.919-24.108 45.798-55.092 54.906-89.315 11.592 9.213 23.443 16.972 35.353 23.107 1.081.557 2.259.833 3.434.833 1.405 0 2.806-.395 4.031-1.175 2.25-1.434 3.569-3.956 3.463-6.622-1.678-42.334-17.946-89.721-45.804-133.433zm-385.992 120.277c3.196-27.743 12.67-57.372 27.514-86.292-2.756 13.987-3.923 28.396-3.36 42.99.31 8.039 1.162 15.997 2.516 23.836-8.767 7.421-17.691 13.939-26.67 19.466zm79.965 118.294c3.396-14.362 16.325-25.081 31.71-25.081s28.313 10.719 31.709 25.081zm192.387 0c3.396-14.362 16.325-25.081 31.709-25.081 15.385 0 28.314 10.719 31.71 25.081zm91.84-104.824c-3.916-26.873-11.106-52.76-21.199-75.921-12.827-29.435-30.369-54.697-50.73-73.054-3.076-2.774-7.818-2.528-10.592.548-2.773 3.076-2.528 7.819.548 10.592 38.698 34.89 64.696 95.509 69.584 162.207-9.609 15.608-21.832 29.725-36.381 41.753-3.643-.896-7.446-1.381-11.362-1.381-20.846 0-38.592 13.482-45.008 32.18-19.925 6.334-40.754 8.884-61.975 7.564-13.743-.853-27.325-3.442-40.428-7.659-6.443-18.649-24.165-32.085-44.976-32.085-3.795 0-7.483.46-11.023 1.303-14.64-12.122-26.985-26.376-36.684-42.117 3.961-53.042 20.904-101.93 47.757-137.729 26.583-35.439 60.728-54.957 96.145-54.957 16.381 0 32.466 4.101 47.809 12.188 3.664 1.931 8.201.527 10.132-3.138 1.931-3.664.527-8.2-3.138-10.132-17.521-9.235-35.959-13.918-54.803-13.918-76.396 0-140.878 77.278-156.307 183.34-7.384-17.955-11.659-37.189-12.419-56.933-1.963-50.956 18.793-99.522 56.949-133.246 17.958-15.872 25.351-40.678 18.835-63.196-2.5-8.639-3.768-17.613-3.768-26.675 0-27.402 11.699-53.63 32.096-71.958 20.676-18.58 47.43-27.169 75.324-24.175 20.691 2.217 40.559 11.496 55.942 26.125 15.39 14.636 25.634 34.007 28.844 54.544 2.164 13.841 1.438 27.542-2.157 40.723-6.545 23.996.555 48.785 18.528 64.693 36.216 32.056 56.987 78.158 56.987 126.484.001 22.338-4.342 44.011-12.53 64.03zm24.914-32.902c1.73-10.182 2.617-20.587 2.617-31.128 0-12.12-1.214-24.109-3.543-35.815 14.868 28.947 24.358 58.606 27.557 86.376-8.967-5.52-17.877-12.027-26.631-19.433z"/></svg>