<svg id="Capa_1" enable-background="new 0 0 512 512" height="512" viewBox="0 0 512 512" width="512" xmlns="http://www.w3.org/2000/svg"><path d="m456.403 288.583c-4.142 0-7.5 3.358-7.5 7.5v208.417c0 4.142 3.358 7.5 7.5 7.5s7.5-3.358 7.5-7.5v-208.417c0-4.143-3.358-7.5-7.5-7.5z"/><path d="m256 0c-114.638 0-207.903 93.265-207.903 207.903v296.597c0 4.142 3.358 7.5 7.5 7.5s7.5-3.358 7.5-7.5v-296.597c0-106.367 86.536-192.903 192.903-192.903s192.903 86.536 192.903 192.903v56.111c0 4.142 3.358 7.5 7.5 7.5s7.5-3.358 7.5-7.5v-56.111c0-114.638-93.265-207.903-207.903-207.903z"/><path d="m256 325.278c8.358 0 16.217-3.255 22.127-9.166l16.845-16.844c4.493-4.493 5.824-11.188 3.393-17.058s-8.107-9.663-14.461-9.663h-55.808c-6.354 0-12.03 3.793-14.461 9.663s-1.1 12.565 3.393 17.058l16.845 16.844c5.91 5.911 13.769 9.166 22.127 9.166zm-28.507-37.327c.167-.403.419-.403.603-.403h55.808c.184 0 .436 0 .603.403.167.402-.012.581-.142.711l-16.845 16.844c-3.078 3.078-7.169 4.772-11.521 4.772s-8.443-1.694-11.521-4.772l-16.845-16.844c-.128-.13-.306-.308-.14-.711z"/><path d="m183.339 179.847c0-15.186-12.354-27.54-27.541-27.54-15.186 0-27.54 12.354-27.54 27.54s12.354 27.541 27.54 27.541c15.186-.001 27.541-12.355 27.541-27.541zm-40.081 0c0-6.915 5.625-12.54 12.54-12.54s12.541 5.625 12.541 12.54-5.625 12.541-12.541 12.541c-6.914-.001-12.54-5.626-12.54-12.541z"/><path d="m383.742 179.847c0-15.186-12.354-27.54-27.54-27.54s-27.541 12.354-27.541 27.54 12.354 27.541 27.541 27.541c15.185-.001 27.54-12.355 27.54-27.541zm-40.081 0c0-6.915 5.625-12.54 12.541-12.54 6.915 0 12.54 5.625 12.54 12.54s-5.625 12.541-12.54 12.541c-6.915-.001-12.541-5.626-12.541-12.541z"/><path d="m424.339 288.581h-42.348c-2.642-11.898-8.256-23.044-16.503-32.254-13.579-15.163-33.033-23.859-53.375-23.859h-110.03c-21.37 0-41.74 9.06-55.886 24.857-2.764 3.086-2.502 7.827.583 10.59 3.086 2.764 7.828 2.503 10.59-.583 11.305-12.624 27.602-19.864 44.712-19.864h110.029c16.082 0 31.463 6.876 42.2 18.866 5.852 6.534 9.984 14.104 12.289 22.247h-30.44c-4.142 0-7.5 3.358-7.5 7.5s3.358 7.5 7.5 7.5h32.567c.018 2.315-.086 4.649-.345 7-.994 8.99-4.229 17.436-9.106 24.745l-27.777-13.888c-3.705-1.854-8.209-.35-10.062 3.354-1.853 3.705-.351 8.21 3.354 10.062l24.225 12.112c-7.842 6.799-17.509 11.503-28.052 13.091-16.435 2.475-32.416-1.923-44.999-12.388-11.617-9.661-28.333-9.726-39.748-.152-10.155 8.518-23.057 13.208-36.33 13.208-13.792 0-26.711-4.836-36.971-13.726l24.293-12.146c3.705-1.852 5.207-6.357 3.354-10.062-1.852-3.705-6.356-5.208-10.062-3.354l-27.84 13.92c-6.239-9.367-9.502-20.313-9.395-31.776h32.573c4.142 0 7.5-3.358 7.5-7.5s-3.358-7.5-7.5-7.5h-88.178c-4.142 0-7.5 3.358-7.5 7.5s3.358 7.5 7.5 7.5h40.608c-.109 13.825 3.666 27.057 10.891 38.527l-22.788 11.394c-3.705 1.852-5.207 6.357-3.354 10.062 1.314 2.628 3.962 4.147 6.714 4.147 1.127 0 2.271-.255 3.348-.793l25.58-12.79c13.425 13.733 31.999 21.598 51.228 21.598 16.792 0 33.118-5.937 45.97-16.716 5.853-4.909 14.48-4.827 20.516.192 13.029 10.836 28.912 16.536 45.613 16.535 3.704 0 7.451-.28 11.213-.847 15.452-2.329 29.423-9.926 40.042-20.811l25.679 12.84c1.077.539 2.221.793 3.348.793 2.751 0 5.4-1.52 6.714-4.147 1.853-3.705.351-8.21-3.354-10.062l-22.885-11.442c5.631-8.903 9.357-19.061 10.548-29.831.319-2.888.443-5.775.416-8.648h40.631c4.142 0 7.5-3.358 7.5-7.5s-3.358-7.501-7.5-7.501z"/></svg>