<svg id="Capa_1" enable-background="new 0 0 512 512" height="512" viewBox="0 0 512 512" width="512" xmlns="http://www.w3.org/2000/svg"><path d="m448.387 68.137c-35.076 0-63.613 28.537-63.613 63.613v124.463c-29.956-72.664-101.54-123.947-184.887-123.947-110.218 0-199.887 89.669-199.887 199.887 0 4.142 3.358 7.5 7.5 7.5h25.084c3.343 24.665 22.911 44.234 47.577 47.577v33.101c0 12.976 10.557 23.532 23.532 23.532h72.146c4.142 0 7.5-3.358 7.5-7.5 0-15.965-9.639-30.148-24.048-36.28v-12.333h136.79c4.142 0 7.5-3.358 7.5-7.5s-3.358-7.5-7.5-7.5h-136.79v-33.097h161.354v80.677c0 12.976 10.557 23.532 23.532 23.532h72.146c4.142 0 7.5-3.358 7.5-7.5 0-15.965-9.639-30.148-24.048-36.28v-12.657c44.838-3.818 80.161-41.527 80.161-87.337v-136.79h16.548c8.556 0 15.516-6.96 15.516-15.516v-16.032c0-35.076-28.537-63.613-63.613-63.613zm-67.881 224.452h-34.051c-6.66-24.722-19.528-47.428-37.467-65.969-16.611-17.169-36.938-30.113-59.293-37.877l25.45-25.45c52.883 23.663 92.7 71.456 105.361 129.296zm-173.119-61.539 30.362-30.362c22.907 6.585 43.761 19.104 60.458 36.361 15.22 15.732 26.396 34.782 32.66 55.54h-123.48zm52.548-73.761-60.048 60.048-60.048-60.048c18.837-6.487 39.036-10.023 60.048-10.023s41.211 3.536 60.048 10.023zm-135.305 6.004 25.445 25.445c-6.568 2.282-12.988 5.011-19.176 8.173-3.688 1.885-5.15 6.403-3.265 10.091 1.327 2.596 3.957 4.088 6.684 4.088 1.148 0 2.315-.265 3.407-.823 7.76-3.966 15.922-7.18 24.291-9.588l30.37 30.37v61.539h-123.451c7.658-25.269 22.716-48.193 43.1-65.291 3.174-2.662 3.588-7.393.926-10.566-2.661-3.173-7.392-3.588-10.566-.926-23.772 19.939-41.045 47.025-49.085 76.783h-34.042c12.661-57.839 52.479-105.632 105.362-129.295zm-107.994 144.296h366.502c.749 5.614 1.255 11.304 1.486 17.064h-369.474c.231-5.76.737-11.45 1.486-17.064zm31.135 32.064h32.391v32.391c-16.381-3.073-29.318-16.01-32.391-32.391zm96.52 65.779c0 3.418 2.311 6.403 5.62 7.26 8.315 2.154 14.709 8.374 17.243 16.17h-63.459c-4.705 0-8.532-3.828-8.532-8.532v-80.677h49.129v65.779zm263.346 23.431h-63.459c-4.705 0-8.532-3.828-8.532-8.532v-80.677h49.129v65.779c0 3.418 2.311 6.403 5.62 7.26 8.314 2.153 14.708 8.373 17.242 16.17zm89.363-281.081c0 .285-.231.516-.516.516h-36.76c-5.308 0-10.297-2.066-14.049-5.819-2.93-2.929-7.678-2.928-10.607 0-2.929 2.929-2.929 7.678 0 10.607 6.585 6.586 15.342 10.213 24.656 10.213h5.212v136.791c0 37.533-28.606 68.509-65.161 72.275v-240.615c0-26.805 21.808-48.613 48.613-48.613s48.612 21.808 48.612 48.613z"/><path d="m456.403 116.234c-4.142 0-7.5 3.358-7.5 7.5s3.358 7.5 7.5 7.5h.08c4.142 0 7.46-3.358 7.46-7.5s-3.398-7.5-7.54-7.5z"/></svg>