<svg id="Capa_1" enable-background="new 0 0 512 512" height="512" viewBox="0 0 512 512" width="512" xmlns="http://www.w3.org/2000/svg"><path d="m440.371 200.403h-79.743c-47.026 0-89.882 27.71-109.18 70.595l-19.341 42.979c-12.779 28.398-41.159 46.748-72.3 46.748-31.226 0-56.629-25.404-56.629-56.629v-10.688c0-4.142-3.358-7.5-7.5-7.5s-7.5 3.358-7.5 7.5v10.688c0 39.496 32.133 71.629 71.629 71.629 37.033 0 70.782-21.821 85.979-55.593l19.341-42.979c16.88-37.512 54.367-61.75 95.501-61.75h79.743c31.225 0 56.629 25.404 56.629 56.629v16.032c0 11.225-1.369 22.134-3.931 32.581h-76.747c-4.142 0-7.5 3.358-7.5 7.5s3.358 7.5 7.5 7.5h72.137c-19.369 52.039-69.547 89.21-128.25 89.21h-168.338c-28.585 0-54.877-9.99-75.583-26.654 13.241 6.148 27.984 9.589 43.519 9.589h43.269c38.46 0 75.105-15.761 101.538-42.962v23.66c0 6.937 3.957 12.933 10.326 15.647 6.38 2.72 13.456 1.418 18.468-3.393 13.013-12.49 30.238-33.716 40.376-65.098h10.476c4.142 0 7.5-3.358 7.5-7.5s-3.358-7.5-7.5-7.5h-16.033c-3.349 0-6.292 2.22-7.211 5.439-8.905 31.167-25.577 51.917-37.995 63.837-.806.775-1.64.654-2.199.416-.551-.235-1.208-.746-1.208-1.849v-44.311c0-3.26-2.106-6.147-5.211-7.142-3.103-.993-6.497.13-8.392 2.783-23.692 33.17-62.173 52.973-102.935 52.973h-43.269c-48.906 0-88.694-39.788-88.694-88.694v-32.064-10.347c0-3.459-2.365-6.469-5.726-7.287-16.132-3.927-36.577-13.928-47.298-38.995h37.508c9.125 0 16.548 7.424 16.548 16.548 0 4.142 3.358 7.5 7.5 7.5s7.5-3.358 7.5-7.5c0-9.125 7.423-16.548 16.548-16.548h37.508c-10.721 25.067-31.166 35.068-47.297 38.995-4.025.979-6.493 5.036-5.514 9.061s5.04 6.493 9.061 5.514c17.938-4.366 49.788-17.838 61.551-59.008.646-2.263.193-4.698-1.224-6.577s-3.634-2.983-5.988-2.983h-48.097c-9.625 0-18.257 4.333-24.048 11.15-5.792-6.817-14.423-11.15-24.048-11.15h-48.097c-2.354 0-4.57 1.104-5.988 2.983-1.417 1.879-1.87 4.314-1.224 6.577 10.594 37.079 37.481 51.691 55.824 57.419v36.714c0 74.857 60.901 135.758 135.758 135.758h168.34c83.698 0 151.791-68.093 151.791-151.791v-16.032c-.001-39.497-32.134-71.63-71.63-71.63z"/><path d="m415.807 280.048c0-12.976-10.557-23.532-23.532-23.532-12.976 0-23.533 10.557-23.533 23.532s10.557 23.532 23.533 23.532c12.975.001 23.532-10.556 23.532-23.532zm-32.065 0c0-4.705 3.828-8.532 8.533-8.532s8.532 3.828 8.532 8.532-3.828 8.532-8.532 8.532c-4.706.001-8.533-3.827-8.533-8.532z"/><path d="m370.176 172.234c1.438 1.978 3.712 3.089 6.066 3.089.773 0 1.555-.12 2.318-.368 3.089-1.004 5.181-3.884 5.181-7.132v-66.54c0-16.066-13.071-29.138-29.138-29.138-11.017 0-20.966 6.099-25.965 15.916s-4.08 21.451 2.4 30.36zm-28.17-77.366c2.462-4.836 7.172-7.723 12.599-7.723 7.795 0 14.137 6.342 14.137 14.138v43.476l-25.571-35.161c-3.192-4.389-3.628-9.895-1.165-14.73z"/><path d="m406.239 175.032c.685.196 1.38.291 2.067.291 2.538 0 4.964-1.293 6.36-3.525l26.413-42.261c4.26-6.817 4.478-15.084.581-22.115-3.896-7.031-11.022-11.228-19.061-11.228-12.017 0-21.793 9.776-21.793 21.792v49.836c0 3.346 2.216 6.287 5.433 7.21zm9.567-57.046c0-3.746 3.047-6.792 6.793-6.792 3.611 0 5.358 2.447 5.941 3.5s1.733 3.831-.181 6.893l-12.553 20.085z"/></svg>